# xmcd
#
# Track frame offsets:
#	150
#	15090
#	33490
#	53187
#	72192
#	89077
#	109665
#	126275
#	150645
#	165850
#	181290
#	198450
#	215780
#	233512
#	259402
#	281490
#
# Disc length: 4056 seconds
#
# Revision: 1
# Processed by: cddbd v1.4PL0 Copyright (c) Steve Scherf et al.
# Submitted via: audiograbber 1.82.02
#
DISCID=da0fd610
DTITLE=Various Artist - Hits of the 90's
DYEAR=2001
DGENRE=Soul
TTITLE0=Will Smith - Miami (Radio Edit)
TTITLE1=Destiny's Child - No, No, No Part 1
TTITLE2=Six Was Nine - Drop Dead Beautiful
TTITLE3=Terence Trent D'Arby ft. Des'ree - Delicate
TTITLE4=Bone Thugs-N-Harmony - Tha Crossroad
TTITLE5=Ginuwine - When Doves Cry
TTITLE6=Lamar ft. Jemini - Shine (david's Song) (Radio Mix)
TTITLE7=TQ - Bye Bye Baby
TTITLE8=Lutricia McNeal - Ain't That Just The Way
TTITLE9=Xscape - Just Kickin' It
TTITLE10=Elisha La'Verne ft. Vooodu - Elisha Is Not At Home
TTITLE11=Dionne Farris - Heartbreak Road
TTITLE12=Joe Public - Live And Learn
TTITLE13=Babyface - Whip Appeal
TTITLE14=Jonathan Butler - Lovesongs, Candlelight And You
TTITLE15=Puff Johnson - Forever More (Radio Version)
EXTD=
EXTT0=
EXTT1=
EXTT2=
EXTT3=
EXTT4=
EXTT5=
EXTT6=
EXTT7=
EXTT8=
EXTT9=
EXTT10=
EXTT11=
EXTT12=
EXTT13=
EXTT14=
EXTT15=
PLAYORDER=
